<mxfile host="app.diagrams.net" modified="2024-01-15T12:31:43.330Z" agent="Mozilla/5.0 (Macintosh; Intel Mac OS X 10_15_7) AppleWebKit/537.36 (KHTML, like Gecko) Chrome/120.0.0.0 Safari/537.36" version="22.1.18" etag="c12wKI2p80FmzSEpr2nA" type="github">
  <diagram name="Page-1" id="kGkAQWTx3kNYL92mSCWE">
    <mxGraphModel>
      <root>
        <mxCell id="0" />
        <mxCell id="1" parent="0" />
      </root>
    </mxGraphModel>
  </diagram>
</mxfile>
